<svg width="219" height="87" viewBox="0 0 219 87" fill="none" xmlns="http://www.w3.org/2000/svg">
<path d="M126.174 36.0276H125.406C124.718 36.027 124.058 35.8033 123.571 35.4058C123.085 35.0082 122.811 34.4692 122.811 33.907V33.3801C122.811 32.075 123.113 30.9823 123.71 30.1322C124.433 29.1434 125.277 28.217 126.228 27.3669C126.86 26.8479 127.433 26.2834 127.941 25.6802C128.305 25.2117 128.493 24.6661 128.482 24.1111C128.482 22.8019 127.438 22.1655 125.291 22.1655C124.1 22.1765 122.916 22.3216 121.774 22.5968C121.333 22.6996 120.869 22.7174 120.419 22.6489C119.968 22.5803 119.543 22.4272 119.178 22.2017C118.812 21.9762 118.515 21.6844 118.311 21.3492C118.106 21.014 118 20.6447 118 20.2703V19.2036C117.998 18.7445 118.158 18.2945 118.462 17.9084C118.766 17.5223 119.201 17.2166 119.713 17.0283C121.731 16.3246 123.907 15.9748 126.101 16.0014C128.399 16.0014 130.474 16.3169 132.267 16.9389C134.064 17.5623 135.483 18.4415 136.486 19.5519C137.486 20.6545 138.018 21.994 138 23.3662C138 24.8398 137.507 26.1232 136.536 27.1809C135.576 28.2278 134.199 29.3739 132.445 30.5876C131.52 31.2159 130.644 31.8903 129.822 32.6071C129.29 33.0747 128.915 33.646 128.731 34.2663C128.629 34.7597 128.315 35.2074 127.847 35.5299C127.379 35.8524 126.786 36.0287 126.174 36.0276V36.0276Z" fill="#835AFD"/>
<path d="M125.747 46H125.645C124.37 45.9993 123.148 45.5849 122.246 44.8479C121.345 44.1109 120.839 43.1116 120.839 42.0697C120.839 41.0278 121.345 40.0284 122.246 39.2914C123.148 38.5544 124.37 38.1401 125.645 38.1394H125.747C126.378 38.1391 127.004 38.2405 127.588 38.4378C128.172 38.6352 128.702 38.9247 129.149 39.2897C129.596 39.6546 129.951 40.088 130.193 40.565C130.435 41.0421 130.559 41.5533 130.559 42.0697C130.559 42.586 130.435 43.0973 130.193 43.5743C129.951 44.0514 129.596 44.4847 129.149 44.8497C128.702 45.2147 128.172 45.5042 127.588 45.7016C127.004 45.8989 126.378 46.0003 125.747 46Z" fill="#835AFD"/>
<path d="M203.293 58.6253H200.831L201.336 61.0356L205.75 82.0973L175.934 59.0431L175.394 58.6253H174.711H14.5C12.3802 58.6253 10.8804 58.6244 9.69894 58.5518C8.53306 58.4802 7.80889 58.344 7.23106 58.1309C5.03538 57.3208 3.3045 55.5899 2.49447 53.3943C2.2813 52.8164 2.14515 52.0923 2.07349 50.9264C2.00088 49.7449 2 48.2452 2 46.1253V14.5C2 12.3802 2.00088 10.8804 2.07349 9.69894C2.14515 8.53306 2.2813 7.80889 2.49447 7.23106C3.3045 5.03538 5.03538 3.3045 7.23106 2.49447C7.80889 2.2813 8.53306 2.14515 9.69894 2.07349C10.8804 2.00088 12.3802 2 14.5 2H204.5C206.62 2 208.12 2.00088 209.301 2.07349C210.467 2.14515 211.191 2.2813 211.769 2.49447C213.965 3.3045 215.695 5.03538 216.506 7.23106C216.719 7.80889 216.855 8.53306 216.926 9.69894C216.999 10.8804 217 12.3802 217 14.5V31.2562V46.1253C217 48.2452 216.999 49.7449 216.926 50.9264C216.855 52.0923 216.719 52.8164 216.506 53.3943C215.695 55.5899 213.965 57.3208 211.769 58.1309C211.191 58.344 210.467 58.4802 209.301 58.5518C208.12 58.6244 206.62 58.6253 204.5 58.6253H203.293Z" stroke="#835AFD" stroke-width="4"/>
<path d="M37.712 46.94C37.8893 47.2187 37.978 47.51 37.978 47.814C37.978 48.1687 37.8387 48.46 37.56 48.688C37.2813 48.916 36.952 49.03 36.572 49.03C35.9133 49.03 35.3813 48.7007 34.976 48.042L32.772 44.432C31.86 43.0133 30.4413 42.304 28.516 42.304C26.0333 42.304 23.8673 41.7467 22.018 40.632C20.194 39.5173 18.788 37.934 17.8 35.882C16.812 33.83 16.318 31.4107 16.318 28.624C16.318 25.812 16.7993 23.38 17.762 21.328C18.75 19.2507 20.156 17.6673 21.98 16.578C23.8293 15.4633 26.008 14.906 28.516 14.906C30.9987 14.906 33.152 15.4633 34.976 16.578C36.8253 17.6673 38.244 19.2507 39.232 21.328C40.22 23.38 40.714 25.7993 40.714 28.586C40.714 31.8287 40.0553 34.5773 38.738 36.832C37.446 39.0613 35.5967 40.6193 33.19 41.506C33.7473 41.6833 34.2413 41.9747 34.672 42.38C35.1027 42.8107 35.546 43.3933 36.002 44.128L37.712 46.94ZM19.51 28.586C19.51 32.1073 20.2953 34.8307 21.866 36.756C23.462 38.6813 25.6787 39.644 28.516 39.644C31.3533 39.644 33.5573 38.694 35.128 36.794C36.724 34.8687 37.522 32.1327 37.522 28.586C37.522 25.0393 36.7367 22.316 35.166 20.416C33.5953 18.516 31.3787 17.566 28.516 17.566C25.6787 17.566 23.462 18.5287 21.866 20.454C20.2953 22.354 19.51 25.0647 19.51 28.586ZM59.9295 23.114C60.4109 23.114 60.7782 23.2533 61.0315 23.532C61.3102 23.8107 61.4495 24.178 61.4495 24.634V40.708C61.4495 41.1387 61.3102 41.4933 61.0315 41.772C60.7782 42.0507 60.4109 42.19 59.9295 42.19C59.4735 42.19 59.1062 42.0633 58.8275 41.81C58.5742 41.5313 58.4475 41.1767 58.4475 40.746V38.846C57.8649 39.9607 57.0415 40.8093 55.9775 41.392C54.9389 41.9747 53.7609 42.266 52.4435 42.266C50.2395 42.266 48.5802 41.658 47.4655 40.442C46.3509 39.2007 45.7935 37.3767 45.7935 34.97V24.634C45.7935 24.178 45.9329 23.8107 46.2115 23.532C46.4902 23.2533 46.8702 23.114 47.3515 23.114C47.8329 23.114 48.2002 23.2533 48.4535 23.532C48.7322 23.8107 48.8715 24.178 48.8715 24.634V34.894C48.8715 36.5407 49.2009 37.7567 49.8595 38.542C50.5182 39.302 51.5569 39.682 52.9755 39.682C54.5969 39.682 55.9015 39.1627 56.8895 38.124C57.8775 37.06 58.3715 35.6667 58.3715 33.944V24.634C58.3715 24.178 58.5109 23.8107 58.7895 23.532C59.0682 23.2533 59.4482 23.114 59.9295 23.114ZM81.4963 37.706C81.775 37.706 82.0156 37.82 82.2183 38.048C82.421 38.276 82.5223 38.5673 82.5223 38.922C82.5223 39.5553 82.079 40.138 81.1923 40.67C80.2803 41.202 79.3176 41.6073 78.3043 41.886C77.291 42.1393 76.303 42.266 75.3403 42.266C72.4776 42.266 70.2103 41.4173 68.5383 39.72C66.8916 38.0227 66.0683 35.6793 66.0683 32.69C66.0683 30.79 66.4356 29.118 67.1703 27.674C67.905 26.2047 68.931 25.0647 70.2483 24.254C71.591 23.4433 73.111 23.038 74.8083 23.038C77.215 23.038 79.1276 23.8233 80.5463 25.394C81.965 26.9647 82.6743 29.0927 82.6743 31.778C82.6743 32.2847 82.573 32.652 82.3703 32.88C82.1676 33.108 81.8383 33.222 81.3823 33.222H69.1463C69.3743 37.5793 71.439 39.758 75.3403 39.758C76.3283 39.758 77.177 39.6313 77.8863 39.378C78.5956 39.0993 79.3556 38.732 80.1663 38.276C80.825 37.896 81.2683 37.706 81.4963 37.706ZM74.8463 25.432C73.225 25.432 71.9203 25.9387 70.9323 26.952C69.9696 27.9653 69.3996 29.3967 69.2223 31.246H79.9763C79.9256 29.3713 79.457 27.94 78.5703 26.952C77.6836 25.9387 76.4423 25.432 74.8463 25.432ZM93.4414 42.266C92.276 42.266 91.1614 42.1267 90.0974 41.848C89.0587 41.5693 88.134 41.1767 87.3234 40.67C86.8674 40.366 86.538 40.0873 86.3354 39.834C86.158 39.5553 86.0694 39.226 86.0694 38.846C86.0694 38.5167 86.158 38.2507 86.3354 38.048C86.538 37.82 86.7914 37.706 87.0954 37.706C87.3994 37.706 87.8427 37.896 88.4254 38.276C89.1854 38.732 89.9327 39.0993 90.6674 39.378C91.4274 39.6313 92.3647 39.758 93.4794 39.758C94.8474 39.758 95.9114 39.5173 96.6714 39.036C97.4314 38.5547 97.8114 37.858 97.8114 36.946C97.8114 36.3887 97.672 35.9453 97.3934 35.616C97.1147 35.2613 96.6334 34.9573 95.9494 34.704C95.2654 34.4253 94.2647 34.1467 92.9474 33.868C90.718 33.3867 89.122 32.7407 88.1594 31.93C87.1967 31.1193 86.7154 30.0173 86.7154 28.624C86.7154 27.5347 87.0194 26.572 87.6274 25.736C88.2354 24.9 89.0714 24.2413 90.1354 23.76C91.2247 23.2787 92.4534 23.038 93.8214 23.038C94.8094 23.038 95.7594 23.1773 96.6714 23.456C97.6087 23.7093 98.432 24.0767 99.1414 24.558C100.003 25.166 100.433 25.7993 100.433 26.458C100.433 26.7873 100.332 27.066 100.129 27.294C99.9267 27.522 99.686 27.636 99.4074 27.636C99.1034 27.636 98.6474 27.4207 98.0394 26.99C97.33 26.534 96.6587 26.1793 96.0254 25.926C95.392 25.6727 94.6067 25.546 93.6694 25.546C92.4787 25.546 91.516 25.812 90.7814 26.344C90.072 26.876 89.7174 27.5853 89.7174 28.472C89.7174 29.0293 89.844 29.4853 90.0974 29.84C90.376 30.1693 90.8194 30.4733 91.4274 30.752C92.0607 31.0053 92.96 31.2587 94.1254 31.512C95.848 31.892 97.178 32.31 98.1154 32.766C99.078 33.222 99.762 33.7793 100.167 34.438C100.573 35.0967 100.775 35.9327 100.775 36.946C100.775 38.542 100.104 39.834 98.7614 40.822C97.4187 41.7847 95.6454 42.266 93.4414 42.266ZM113.832 39.758C114.718 39.834 115.162 40.2393 115.162 40.974C115.162 41.4047 114.997 41.734 114.668 41.962C114.364 42.1647 113.895 42.2407 113.262 42.19L112.236 42.114C110.209 41.962 108.714 41.354 107.752 40.29C106.789 39.226 106.308 37.6173 106.308 35.464V25.926H103.762C103.331 25.926 102.989 25.8247 102.736 25.622C102.508 25.394 102.394 25.1027 102.394 24.748C102.394 24.368 102.508 24.064 102.736 23.836C102.989 23.608 103.331 23.494 103.762 23.494H106.308V19.2C106.308 18.7187 106.447 18.3513 106.726 18.098C107.004 17.8193 107.384 17.68 107.866 17.68C108.322 17.68 108.689 17.8193 108.968 18.098C109.246 18.3513 109.386 18.7187 109.386 19.2V23.494H113.604C114.009 23.494 114.326 23.608 114.554 23.836C114.807 24.064 114.934 24.368 114.934 24.748C114.934 25.1027 114.807 25.394 114.554 25.622C114.326 25.8247 114.009 25.926 113.604 25.926H109.386V35.616C109.386 37.0093 109.664 38.0227 110.222 38.656C110.804 39.264 111.666 39.606 112.806 39.682L113.832 39.758Z" fill="#403E3D"/>
<path d="M148.526 42.266C146.778 42.266 145.233 41.8733 143.89 41.088C142.573 40.3027 141.547 39.188 140.812 37.744C140.103 36.2747 139.748 34.5773 139.748 32.652C139.748 30.7267 140.103 29.042 140.812 27.598C141.547 26.1287 142.573 25.0013 143.89 24.216C145.233 23.4307 146.778 23.038 148.526 23.038C150.274 23.038 151.819 23.4307 153.162 24.216C154.505 25.0013 155.531 26.1287 156.24 27.598C156.975 29.042 157.342 30.7267 157.342 32.652C157.342 34.5773 156.975 36.2747 156.24 37.744C155.531 39.188 154.505 40.3027 153.162 41.088C151.819 41.8733 150.274 42.266 148.526 42.266ZM148.526 39.72C150.35 39.72 151.743 39.1247 152.706 37.934C153.694 36.718 154.188 34.9573 154.188 32.652C154.188 30.3973 153.694 28.662 152.706 27.446C151.718 26.2047 150.325 25.584 148.526 25.584C146.727 25.584 145.334 26.2047 144.346 27.446C143.358 28.662 142.864 30.3973 142.864 32.652C142.864 34.932 143.345 36.68 144.308 37.896C145.296 39.112 146.702 39.72 148.526 39.72ZM171.238 23.038C175.671 23.038 177.888 25.4827 177.888 30.372V40.67C177.888 41.1513 177.749 41.5313 177.47 41.81C177.217 42.0633 176.849 42.19 176.368 42.19C175.887 42.19 175.507 42.0633 175.228 41.81C174.949 41.5313 174.81 41.1513 174.81 40.67V30.562C174.81 28.8393 174.468 27.5853 173.784 26.8C173.125 26.0147 172.061 25.622 170.592 25.622C168.895 25.622 167.539 26.1413 166.526 27.18C165.513 28.2187 165.006 29.6247 165.006 31.398V40.67C165.006 41.1513 164.867 41.5313 164.588 41.81C164.335 42.0633 163.967 42.19 163.486 42.19C163.005 42.19 162.625 42.0633 162.346 41.81C162.067 41.5313 161.928 41.1513 161.928 40.67V24.634C161.928 24.178 162.067 23.8107 162.346 23.532C162.625 23.2533 163.005 23.114 163.486 23.114C163.942 23.114 164.297 23.2533 164.55 23.532C164.829 23.8107 164.968 24.1653 164.968 24.596V26.534C165.576 25.394 166.425 24.5327 167.514 23.95C168.603 23.342 169.845 23.038 171.238 23.038ZM189.758 42.266C188.592 42.266 187.478 42.1267 186.414 41.848C185.375 41.5693 184.45 41.1767 183.64 40.67C183.184 40.366 182.854 40.0873 182.652 39.834C182.474 39.5553 182.386 39.226 182.386 38.846C182.386 38.5167 182.474 38.2507 182.652 38.048C182.854 37.82 183.108 37.706 183.412 37.706C183.716 37.706 184.159 37.896 184.742 38.276C185.502 38.732 186.249 39.0993 186.984 39.378C187.744 39.6313 188.681 39.758 189.796 39.758C191.164 39.758 192.228 39.5173 192.988 39.036C193.748 38.5547 194.128 37.858 194.128 36.946C194.128 36.3887 193.988 35.9453 193.71 35.616C193.431 35.2613 192.95 34.9573 192.266 34.704C191.582 34.4253 190.581 34.1467 189.264 33.868C187.034 33.3867 185.438 32.7407 184.476 31.93C183.513 31.1193 183.032 30.0173 183.032 28.624C183.032 27.5347 183.336 26.572 183.944 25.736C184.552 24.9 185.388 24.2413 186.452 23.76C187.541 23.2787 188.77 23.038 190.138 23.038C191.126 23.038 192.076 23.1773 192.988 23.456C193.925 23.7093 194.748 24.0767 195.458 24.558C196.319 25.166 196.75 25.7993 196.75 26.458C196.75 26.7873 196.648 27.066 196.446 27.294C196.243 27.522 196.002 27.636 195.724 27.636C195.42 27.636 194.964 27.4207 194.356 26.99C193.646 26.534 192.975 26.1793 192.342 25.926C191.708 25.6727 190.923 25.546 189.986 25.546C188.795 25.546 187.832 25.812 187.098 26.344C186.388 26.876 186.034 27.5853 186.034 28.472C186.034 29.0293 186.16 29.4853 186.414 29.84C186.692 30.1693 187.136 30.4733 187.744 30.752C188.377 31.0053 189.276 31.2587 190.442 31.512C192.164 31.892 193.494 32.31 194.432 32.766C195.394 33.222 196.078 33.7793 196.484 34.438C196.889 35.0967 197.092 35.9327 197.092 36.946C197.092 38.542 196.42 39.834 195.078 40.822C193.735 41.7847 191.962 42.266 189.758 42.266Z" fill="#403E3D"/>
</svg>
