<svg width="317" height="317" viewBox="0 0 317 317" fill="none" xmlns="http://www.w3.org/2000/svg">
<path d="M158.376 316.044C245.65 316.044 316.398 245.295 316.398 158.022C316.398 70.7489 245.65 0 158.376 0C71.1033 0 0.354431 70.7489 0.354431 158.022C0.354431 245.295 71.1033 316.044 158.376 316.044Z" fill="#F1F1F1"/>
<path d="M174.179 99.191V165.34H78.02L60.256 186.654L62.284 165.34H53.641V99.191H174.179Z" fill="#835AFD"/>
<path opacity="0.1" d="M174.179 121.975H130.814V165.339H174.179V121.975Z" fill="black"/>
<path d="M140.369 131.53H260.907V197.679H252.262L254.292 218.994L236.53 197.679H140.369V131.53Z" fill="#835AFD"/>
<path opacity="0.1" d="M60.9908 197.32C75.604 197.32 87.4503 196.165 87.4503 194.739C87.4503 193.313 75.604 192.158 60.9908 192.158C46.3776 192.158 34.5313 193.313 34.5313 194.739C34.5313 196.165 46.3776 197.32 60.9908 197.32Z" fill="black"/>
<path opacity="0.1" d="M254.292 232.223C270.935 232.223 284.427 230.907 284.427 229.283C284.427 227.66 270.935 226.343 254.292 226.343C237.649 226.343 224.158 227.66 224.158 229.283C224.158 230.907 237.649 232.223 254.292 232.223Z" fill="black"/>
<path d="M127.895 242.663H126.589C125.42 242.662 124.298 242.197 123.471 241.37C122.644 240.543 122.179 239.421 122.178 238.252V237.156C122.178 234.441 122.692 232.168 123.707 230.399C124.936 228.342 126.371 226.415 127.988 224.647C129.062 223.567 130.036 222.392 130.899 221.138C131.519 220.163 131.838 219.028 131.819 217.873C131.819 215.15 130.045 213.826 126.394 213.826C124.37 213.849 122.358 214.151 120.415 214.723C119.666 214.937 118.878 214.974 118.112 214.832C117.346 214.689 116.624 214.371 116.002 213.901C115.38 213.432 114.876 212.825 114.528 212.128C114.181 211.431 114 210.662 114 209.883V207.664C113.996 206.709 114.269 205.773 114.786 204.97C115.303 204.167 116.041 203.531 116.913 203.139C120.343 201.675 124.042 200.947 127.772 201.003C131.678 201.003 135.205 201.659 138.254 202.953C141.309 204.25 143.722 206.079 145.427 208.389C147.126 210.683 148.03 213.469 147.999 216.324C147.999 219.389 147.162 222.059 145.512 224.26C143.879 226.437 141.539 228.822 138.556 231.346C136.984 232.654 135.495 234.057 134.097 235.548C133.193 236.52 132.555 237.709 132.243 238.999C132.069 240.026 131.536 240.957 130.74 241.628C129.944 242.299 128.936 242.666 127.895 242.663V242.663Z" fill="#63FF73"/>
<path d="M127.169 263.409H126.997C124.829 263.407 122.751 262.545 121.219 261.012C119.687 259.479 118.826 257.4 118.826 255.233C118.826 253.065 119.687 250.986 121.219 249.453C122.751 247.92 124.829 247.058 126.997 247.056H127.169C128.243 247.056 129.307 247.267 130.3 247.677C131.292 248.088 132.194 248.69 132.954 249.449C133.714 250.209 134.316 251.11 134.728 252.102C135.139 253.095 135.351 254.158 135.351 255.233C135.351 256.307 135.139 257.37 134.728 258.363C134.316 259.355 133.714 260.257 132.954 261.016C132.194 261.775 131.292 262.377 130.3 262.788C129.307 263.199 128.243 263.409 127.169 263.409Z" fill="#63FF73"/>
<path d="M126.811 59.0428L125.787 59.3846C124.868 59.6897 123.867 59.6181 123.001 59.1855C122.135 58.7529 121.477 57.9947 121.17 57.0771L120.883 56.2169C120.172 54.0861 119.981 52.1674 120.314 50.514C120.741 48.5778 121.362 46.6897 122.168 44.8785C122.729 43.75 123.186 42.5733 123.535 41.3626C123.766 40.4356 123.719 39.4611 123.402 38.5601C122.689 36.4226 120.95 35.848 118.085 36.8035C116.502 37.3515 115.002 38.1152 113.627 39.0729C113.096 39.4368 112.486 39.6723 111.848 39.7608C111.21 39.8493 110.56 39.7885 109.949 39.583C109.338 39.3776 108.783 39.0332 108.328 38.577C107.873 38.1207 107.53 37.565 107.326 36.9537L106.745 35.2122C106.492 34.4637 106.461 33.6577 106.656 32.892C106.852 32.1263 107.265 31.4337 107.846 30.8983C110.155 28.8514 112.868 27.3119 115.809 26.3793C118.875 25.3566 121.815 24.9485 124.547 25.1659C127.283 25.3842 129.656 26.1879 131.599 27.5546C133.533 28.9098 134.972 30.8602 135.695 33.1086C136.497 35.5144 136.539 37.8289 135.82 39.9878C135.109 42.1243 133.896 44.6081 132.216 47.3704C131.325 48.8077 130.523 50.2987 129.816 51.8349C129.362 52.8349 129.172 53.9347 129.264 55.0291C129.396 55.8802 129.222 56.7506 128.773 57.4854C128.324 58.2203 127.629 58.7721 126.811 59.0428V59.0428Z" fill="#63FF73"/>
<path d="M131.672 75.5143L131.537 75.5593C129.835 76.1256 127.979 75.9931 126.375 75.1909C124.771 74.3887 123.551 72.9825 122.984 71.2814C122.417 69.5802 122.548 67.7234 123.349 66.1191C124.15 64.5147 125.556 63.2942 127.256 62.7257L127.392 62.6806C128.234 62.3989 129.125 62.286 130.011 62.3484C130.897 62.4108 131.763 62.6473 132.558 63.0443C133.353 63.4414 134.062 63.9912 134.645 64.6623C135.227 65.3335 135.672 66.1128 135.953 66.9558C136.234 67.7989 136.346 68.689 136.283 69.5755C136.22 70.4619 135.983 71.3272 135.586 72.122C135.188 72.9168 134.638 73.6255 133.966 74.2076C133.295 74.7896 132.515 75.2336 131.672 75.5143Z" fill="#63FF73"/>
<path d="M210.95 87.5515L210.09 87.495C209.319 87.4436 208.6 87.0884 208.09 86.5075C207.581 85.9265 207.322 85.1672 207.372 84.3961L207.42 83.6735C207.537 81.8838 207.974 80.4074 208.72 79.2856C209.619 77.9827 210.648 76.7742 211.791 75.6784C212.545 75.013 213.238 74.2809 213.862 73.4911C214.312 72.8753 214.572 72.141 214.609 71.379C214.727 69.5836 213.614 68.6341 211.208 68.4762C209.872 68.4038 208.533 68.5159 207.227 68.8093C206.724 68.9179 206.203 68.9082 205.704 68.7811C205.206 68.6539 204.743 68.4128 204.354 68.0766C203.964 67.7404 203.658 67.3184 203.459 66.8438C203.26 66.3691 203.174 65.8548 203.208 65.3413L203.304 63.8785C203.342 63.2486 203.562 62.6434 203.938 62.1363C204.314 61.6291 204.828 61.2418 205.419 61.0212C207.744 60.2045 210.214 59.8847 212.67 60.0825C215.246 60.2515 217.542 60.8366 219.496 61.8214C221.454 62.8085 222.966 64.1185 223.99 65.715C225.011 67.3006 225.486 69.1766 225.342 71.0571C225.21 73.078 224.543 74.8019 223.359 76.181C222.189 77.5461 220.543 79.0167 218.468 80.5521C217.375 81.3458 216.333 82.2063 215.346 83.1287C214.709 83.7311 214.236 84.4869 213.975 85.324C213.816 85.9931 213.424 86.5841 212.871 86.9919C212.317 87.3998 211.636 87.598 210.95 87.5515V87.5515Z" fill="#FFCA63"/>
<path d="M209.575 101.196L209.461 101.189C208.032 101.094 206.7 100.436 205.756 99.3589C204.812 98.2819 204.335 96.8743 204.428 95.4454C204.522 94.0165 205.179 92.6833 206.256 91.7388C207.332 90.7943 208.739 90.3159 210.168 90.4087L210.282 90.4162C210.99 90.4622 211.682 90.6472 212.319 90.9608C212.955 91.2744 213.524 91.7104 213.992 92.2438C214.46 92.7772 214.818 93.3976 215.046 94.0695C215.275 94.7414 215.368 95.4518 215.322 96.1599C215.275 96.868 215.09 97.56 214.776 98.1964C214.462 98.8328 214.025 99.4011 213.492 99.8688C212.958 100.336 212.337 100.694 211.665 100.922C210.993 101.15 210.283 101.243 209.575 101.196Z" fill="#FFCA63"/>
<path d="M231.057 98.0664L230.196 98.0099C229.425 97.9585 228.706 97.6033 228.197 97.0224C227.687 96.4414 227.429 95.6821 227.479 94.911L227.526 94.1884C227.644 92.3987 228.081 90.9223 228.826 89.8004C229.726 88.4976 230.755 87.2891 231.898 86.1933C232.652 85.5279 233.345 84.7958 233.968 84.006C234.419 83.3902 234.678 82.6559 234.716 81.8939C234.833 80.0985 233.721 79.149 231.315 78.9911C229.979 78.9187 228.639 79.0308 227.334 79.3242C226.831 79.4328 226.31 79.4231 225.811 79.296C225.312 79.1688 224.85 78.9277 224.46 78.5915C224.071 78.2553 223.764 77.8333 223.566 77.3587C223.367 76.884 223.281 76.3697 223.314 75.8562L223.41 74.3934C223.449 73.7635 223.669 73.1583 224.045 72.6512C224.42 72.144 224.935 71.7567 225.526 71.5361C227.851 70.7194 230.321 70.3996 232.777 70.5974C235.352 70.7663 237.649 71.3514 239.603 72.3363C241.56 73.3234 243.072 74.6333 244.096 76.2299C245.118 77.8155 245.593 79.6914 245.449 81.572C245.317 83.5929 244.649 85.3168 243.466 86.6959C242.296 88.061 240.65 89.5316 238.574 91.067C237.482 91.8607 236.439 92.7212 235.453 93.6436C234.815 94.2459 234.343 95.0018 234.081 95.8389C233.922 96.508 233.531 97.099 232.977 97.5068C232.424 97.9147 231.743 98.1129 231.057 98.0664V98.0664Z" fill="#FF637F"/>
<path d="M229.681 111.711L229.568 111.704C228.139 111.609 226.806 110.951 225.863 109.874C224.919 108.797 224.441 107.389 224.535 105.96C224.629 104.531 225.286 103.198 226.362 102.254C227.439 101.309 228.846 100.831 230.275 100.924L230.388 100.931C231.097 100.977 231.789 101.162 232.425 101.476C233.062 101.789 233.63 102.225 234.099 102.759C234.567 103.292 234.925 103.912 235.153 104.584C235.381 105.256 235.475 105.967 235.428 106.675C235.382 107.383 235.196 108.075 234.882 108.711C234.568 109.348 234.132 109.916 233.598 110.384C233.065 110.851 232.444 111.209 231.772 111.437C231.1 111.665 230.389 111.758 229.681 111.711Z" fill="#FF637F"/>
</svg>
